<svg xmlns="http://www.w3.org/2000/svg" width="500" zoomAndPan="magnify"
     viewBox="0 0 375 374.999991" height="500" preserveAspectRatio="xMidYMid meet" version="1.0">
    <defs>
        <g/>
        <clipPath id="a84974083a">
            <path d="M 19.601562 154.910156 L 369.101562 154.910156 L 369.101562 188.660156 L 19.601562 188.660156 Z M 19.601562 154.910156 "
                  clip-rule="nonzero"/>
        </clipPath>
    </defs>
    <rect x="-37.5" width="450" fill="#ffffff" y="-37.499999" height="449.999989" fill-opacity="1"/>
    <rect x="-37.5" width="450" fill="#ffffff" y="-37.499999" height="449.999989" fill-opacity="1"/>
    <rect x="-37.5" width="450" fill="#ffffff" y="-37.499999" height="449.999989" fill-opacity="1"/>
    <g fill="#191919" fill-opacity="1">
        <g transform="translate(80.940182, 233.528342)">
            <g>
                <path d="M 8.183594 0.363281 C 15.457031 1.816406 23.273438 2.726562 30.910156 2.726562 C 56.914062 2.726562 81.277344 -6.910156 82.914062 -32.183594 L 82.914062 -127.644531 L 64.730469 -127.644531 L 64.730469 -28.183594 C 64.730469 -10.363281 54.730469 -0.183594 40.003906 -0.183594 C 31.457031 -0.183594 20.910156 -4 8.910156 -12.363281 Z M 8.183594 0.363281 "/>
            </g>
        </g>
    </g>
    <g fill="#191919" fill-opacity="1">
        <g transform="translate(175.673263, 233.528342)">
            <g>
                <path d="M 30 -70.550781 L 95.097656 -70.550781 L 95.097656 -73.09375 L 30 -73.09375 L 30 -125.097656 C 64.550781 -125.097656 86.367188 -122.554688 104.734375 -114.917969 L 104.734375 -127.644531 L 11.820312 -127.644531 L 11.820312 0 L 107.460938 0 L 107.460938 -12.726562 C 86.003906 -4.183594 64.003906 -2.546875 30 -2.546875 Z M 30 -70.550781 "/>
            </g>
        </g>
    </g>
    <g clip-path="url(#a84974083a)">
        <path fill="#ffffff"
              d="M 19.640625 154.910156 L 369.058594 154.910156 L 369.058594 188.660156 L 19.640625 188.660156 L 19.640625 154.910156 "
              fill-opacity="1" fill-rule="nonzero"/>
    </g>
    <g fill="#191919" fill-opacity="1">
        <g transform="translate(147.445209, 175.797537)">
            <g>
                <path d="M 2.074219 0 L 3.257812 0 C 3.179688 -0.328125 3.140625 -0.699219 3.140625 -1.609375 L 3.140625 -11.964844 C 3.140625 -12.875 3.179688 -13.246094 3.257812 -13.574219 L 2.074219 -13.574219 C 2.132812 -13.246094 2.171875 -12.875 2.171875 -11.964844 L 2.171875 -1.609375 C 2.171875 -0.699219 2.132812 -0.328125 2.074219 0 Z M 2.074219 0 "/>
            </g>
        </g>
    </g>
    <g fill="#191919" fill-opacity="1">
        <g transform="translate(155.04682, 175.797537)">
            <g/>
        </g>
    </g>
    <g fill="#191919" fill-opacity="1">
        <g transform="translate(163.230145, 175.797537)">
            <g>
                <path d="M 0.425781 0 L 1.6875 0 C 1.785156 -0.328125 1.9375 -0.699219 2.445312 -1.609375 L 3.605469 -3.683594 L 13.339844 -3.683594 L 14.503906 -1.609375 C 14.988281 -0.699219 15.144531 -0.328125 15.261719 0 L 16.523438 0 C 16.269531 -0.328125 16.039062 -0.699219 15.550781 -1.609375 L 9.910156 -12.003906 C 9.617188 -12.527344 9.367188 -13.050781 9.210938 -13.574219 L 7.796875 -13.574219 C 7.679688 -13.246094 7.523438 -12.875 7.019531 -11.964844 L 1.394531 -1.609375 C 0.910156 -0.699219 0.660156 -0.328125 0.425781 0 Z M 4.054688 -4.539062 L 7.347656 -10.644531 C 7.699219 -11.304688 8.046875 -11.945312 8.398438 -12.585938 L 8.511719 -12.585938 L 9.558594 -10.664062 L 12.875 -4.539062 Z M 4.054688 -4.539062 "/>
            </g>
        </g>
    </g>
    <g fill="#191919" fill-opacity="1">
        <g transform="translate(182.446638, 175.797537)">
            <g>
                <path d="M 2.074219 0 L 3.257812 0 C 3.179688 -0.328125 3.140625 -0.699219 3.140625 -1.609375 L 3.140625 -11.808594 L 3.238281 -11.808594 L 9.851562 0 L 10.722656 0 L 17.296875 -11.808594 L 17.433594 -11.808594 L 17.433594 -1.609375 C 17.433594 -0.699219 17.394531 -0.328125 17.316406 0 L 18.519531 0 C 18.441406 -0.328125 18.402344 -0.699219 18.402344 -1.609375 L 18.402344 -11.964844 C 18.402344 -12.875 18.441406 -13.246094 18.519531 -13.574219 L 17.199219 -13.574219 L 12.527344 -5.195312 C 11.808594 -3.917969 11.09375 -2.617188 10.375 -1.320312 L 10.199219 -1.320312 L 8.066406 -5.195312 L 3.414062 -13.574219 L 2.074219 -13.574219 C 2.132812 -13.246094 2.171875 -12.875 2.171875 -11.964844 L 2.171875 -1.609375 C 2.171875 -0.699219 2.132812 -0.328125 2.074219 0 Z M 2.074219 0 "/>
            </g>
        </g>
    </g>
    <g fill="#191919" fill-opacity="1">
        <g transform="translate(205.275444, 175.797537)">
            <g/>
        </g>
    </g>
    <g fill="#191919" fill-opacity="1">
        <g transform="translate(213.458769, 175.797537)">
            <g/>
        </g>
    </g>
    <g fill="#191919" fill-opacity="1">
        <g transform="translate(221.642094, 175.797537)">
            <g/>
        </g>
    </g>
    <path stroke-linecap="butt" transform="matrix(0.753769, 0, 0, 0.75, 88.688298, 170.206381)" fill="none"
          stroke-linejoin="miter" d="M -0.00105852 1.000867 L 49.759306 1.000867 " stroke="#191919" stroke-width="2"
          stroke-opacity="1" stroke-miterlimit="4"/>
    <path stroke-linecap="butt" transform="matrix(0.753769, 0, 0, 0.75, 241.521025, 170.206381)" fill="none"
          stroke-linejoin="miter" d="M -0.00198123 1.000867 L 49.758384 1.000867 " stroke="#191919" stroke-width="2"
          stroke-opacity="1" stroke-miterlimit="4"/>
</svg>